<svg viewBox="-20 -40 75 80" xmlns="http://www.w3.org/2000/svg">
<path d="m29.339998,4.499983 L29.276384,3.293907 L29.024925,2.839258 L29.632175,2.917858 L29.938358,2.348487 L30.469696,2.413858 L30.527678,2.807632 L30.743013,3.034285 L30.752262,3.35933 L30.50556,3.568567 L30.116333,4.090138 L29.753511,4.452389 L29.339998,4.499983 z" fill="PapayaWhip" id="Burundi" onclick="top.on_mouse_click(this.id)" onmouseout="top.on_mouse_out(this.id)" onmouseover="top.on_mouse_over(event, this.id)" stroke="black" stroke-width="0.1"/>
<path d="m2.691702,-6.258817 L1.865241,-6.142158 L1.618951,-6.832038 L1.664478,-9.12859 L1.463043,-9.334624 L1.425061,-9.825395 L1.077795,-10.175607 L0.772336,-10.470808 L0.899563,-10.997339 L1.24347,-11.110511 L1.447178,-11.547719 L1.935986,-11.64115 L2.154474,-11.94015 L2.490164,-12.233052 L2.848643,-12.235636 L3.61118,-11.660167 L3.572216,-11.327939 L3.797112,-10.734746 L3.60007,-10.332186 L3.705438,-10.06321 L3.220352,-9.444153 L2.912308,-9.137608 L2.723793,-8.506845 L2.749063,-7.870734 L2.691702,-6.258817 z" fill="PapayaWhip" id="Benin" onclick="top.on_mouse_click(this.id)" onmouseout="top.on_mouse_out(this.id)" onmouseover="top.on_mouse_over(event, this.id)" stroke="black" stroke-width="0.1"/>
<path d="m-2.827496,-9.642461 L-3.511899,-9.900326 L-3.980449,-9.862344 L-4.330247,-9.610835 L-4.779884,-9.821985 L-4.954653,-10.152714 L-5.404342,-10.370737 L-5.470565,-10.95127 L-5.197843,-11.375146 L-5.220942,-11.713859 L-4.427166,-12.542646 L-4.280405,-13.228444 L-4.006391,-13.472485 L-3.522803,-13.337662 L-3.103707,-13.541267 L-2.967694,-13.79815 L-2.191825,-14.246418 L-2.001035,-14.559008 L-1.066363,-14.973815 L-0.515854,-15.116158 L-0.266257,-14.924309 L0.374892,-14.928908 L0.295646,-14.444235 L0.429928,-13.988733 L0.993046,-13.33575 L1.024103,-12.851826 L2.177108,-12.625018 L2.154474,-11.94015 L1.935986,-11.64115 L1.447178,-11.547719 L1.24347,-11.110511 L0.899563,-10.997339 L0.023803,-11.018682 L-0.438702,-11.098341 L-0.761576,-10.93693 L-1.203358,-11.009819 L-2.940409,-10.96269 L-2.963896,-10.395335 L-2.827496,-9.642461 z" fill="PapayaWhip" id="Burkina Faso" onclick="top.on_mouse_click(this.id)" onmouseout="top.on_mouse_out(this.id)" onmouseover="top.on_mouse_over(event, this.id)" stroke="black" stroke-width="0.1"/>
<path d="m-2.856125,-4.994476 L-3.311084,-4.984296 L-4.00882,-5.179813 L-4.649917,-5.168264 L-5.834496,-4.993701 L-6.528769,-4.705088 L-7.518941,-4.338288 L-7.712159,-4.364566 L-7.635368,-5.188159 L-7.539715,-5.313345 L-7.570153,-5.707352 L-7.993693,-6.12619 L-8.311348,-6.193033 L-8.60288,-6.467564 L-8.385452,-6.911801 L-8.485446,-7.395208 L-8.439298,-7.686043 L-8.280703,-7.68718 L-8.221792,-8.123329 L-8.299049,-8.316444 L-8.203499,-8.455453 L-7.8321,-8.575704 L-8.079114,-9.376224 L-8.309616,-9.789532 L-8.229337,-10.12902 L-8.029944,-10.206535 L-7.89959,-10.297382 L-7.622759,-10.147236 L-6.850507,-10.138994 L-6.666461,-10.430811 L-6.493965,-10.411303 L-6.205223,-10.524061 L-6.050452,-10.096361 L-5.816926,-10.222555 L-5.404342,-10.370737 L-4.954653,-10.152714 L-4.779884,-9.821985 L-4.330247,-9.610835 L-3.980449,-9.862344 L-3.511899,-9.900326 L-2.827496,-9.642461 L-2.56219,-8.219628 L-2.983585,-7.379705 L-3.24437,-6.250472 L-2.810701,-5.389051 L-2.856125,-4.994476 z" fill="PapayaWhip" id="Ivory Coast" onclick="top.on_mouse_click(this.id)" onmouseout="top.on_mouse_out(this.id)" onmouseover="top.on_mouse_over(event, this.id)" stroke="black" stroke-width="0.1"/>
<path d="m30.83386,-3.509166 L30.773348,-2.339883 L31.174149,-2.204465 L30.85267,-1.849396 L30.468508,-1.583805 L30.086155,-1.062313 L29.875778,-0.59738 L29.819504,0.20531 L29.587837,0.587406 L29.579466,1.341313 L29.291887,1.620056 L29.254835,2.21511 L29.11748,2.292211 L29.024925,2.839258 L29.276384,3.293907 L29.339998,4.499983 L29.519987,5.419979 L29.419992,5.939999 L29.620031,6.520015 L30.199997,7.079981 L30.740015,8.340007 L30.346087,8.238257 L29.002913,8.407032 L28.734867,8.526559 L28.449871,9.164918 L28.673681,9.605925 L28.49607,10.789884 L28.372253,11.793647 L28.642418,11.971569 L29.341549,12.360744 L29.616001,12.178895 L29.699614,13.257227 L28.934286,13.248958 L28.523561,12.698604 L28.15511,12.272481 L27.3888,12.132747 L27.16442,11.608748 L26.553087,11.92444 L25.75231,11.784965 L25.418118,11.330936 L24.78317,11.238694 L24.314516,11.262826 L24.257154,10.951993 L23.912214,10.926826 L23.45679,10.867863 L22.837345,11.017622 L22.402798,10.993075 L22.155268,11.084801 L22.208754,9.894796 L21.875181,9.523708 L21.801802,8.908707 L21.949131,8.305901 L21.746456,7.920085 L21.728111,7.290872 L20.514748,7.299606 L20.601824,6.939318 L20.091621,6.94309 L20.037724,7.116361 L19.417501,7.155429 L19.166613,7.738184 L19.016752,7.988246 L18.464176,7.847014 L18.134222,7.987678 L17.47297,8.068551 L17.089996,7.545689 L16.860191,7.222298 L16.57318,6.622645 L16.326529,5.87747 L13.375597,5.864241 L13.024869,5.984389 L12.735171,5.965682 L12.322432,6.100092 L12.182337,5.789931 L12.436688,5.684304 L12.468004,5.248362 L12.631612,4.991271 L12.995517,4.781103 L13.25824,4.882957 L13.600235,4.500138 L14.144956,4.510009 L14.209035,4.793092 L14.582604,4.970239 L15.170992,4.343507 L15.75354,3.855165 L16.00629,3.535133 L15.972803,2.712392 L16.407091,1.740927 L16.865307,1.225816 L17.523716,0.74383 L17.638645,0.424832 L17.663553,0.058084 L17.82654,-0.288923 L17.774193,-0.855659 L17.898834,-1.741832 L18.094276,-2.365722 L18.393791,-2.900443 L18.453066,-3.504386 L18.542982,-4.201785 L18.932312,-4.709506 L19.467785,-5.031528 L20.29068,-4.691678 L20.927591,-4.322786 L21.659122,-4.224342 L22.405125,-4.02916 L22.704124,-4.633051 L22.84148,-4.710126 L23.297215,-4.609693 L24.41053,-5.108784 L24.805029,-4.897247 L25.128834,-4.927245 L25.278797,-5.170408 L25.650455,-5.256088 L26.402761,-5.150875 L27.044065,-5.127853 L27.374226,-5.233944 L27.979977,-4.408413 L28.428993,-4.287155 L28.696678,-4.455077 L29.159079,-4.389267 L29.715996,-4.600805 L29.9535,-4.173699 L30.83386,-3.509166 z" fill="PapayaWhip" id="Democratic Republic of the Congo" onclick="top.on_mouse_click(this.id)" onmouseout="top.on_mouse_out(this.id)" onmouseover="top.on_mouse_over(event, this.id)" stroke="black" stroke-width="0.1"/>
<path d="m25.649162,18.536026 L25.850391,18.714413 L26.164791,19.293085 L27.296505,20.39152 L27.724747,20.49906 L27.727228,20.851803 L28.02137,21.485975 L28.794657,21.639454 L29.432188,22.091312 L28.017237,22.827753 L27.11941,23.574324 L26.786407,24.24069 L26.485752,24.616327 L25.941652,24.696373 L25.765848,25.174845 L25.664665,25.486816 L25.025171,25.71967 L24.211267,25.670216 L23.73357,25.39013 L23.312098,25.26869 L22.82427,25.50046 L22.579533,25.979448 L22.105968,26.280256 L21.605896,26.726534 L20.889608,26.828543 L20.66647,26.477453 L20.75861,25.868135 L20.165726,24.917961 L19.895767,24.76779 L19.895458,21.849157 L20.881134,21.814327 L20.91064,18.252218 L21.65504,18.219147 L23.196857,17.869038 L23.579006,18.281261 L24.217365,17.889347 L24.520704,17.887125 L25.084442,17.661816 L25.264227,17.73654 L25.649162,18.536026 z" fill="PapayaWhip" id="Botswana" onclick="top.on_mouse_click(this.id)" onmouseout="top.on_mouse_out(this.id)" onmouseover="top.on_mouse_over(event, this.id)" stroke="black" stroke-width="0.1"/>
<path d="m13.075822,-2.267097 L12.951334,-2.321616 L12.35938,-2.192812 L11.751665,-2.326758 L11.276449,-2.261051 L9.649158,-2.283866 L9.795196,-3.073404 L9.404367,-3.734527 L8.948116,-3.904129 L8.744924,-4.352215 L8.488816,-4.495617 L8.500288,-4.771983 L8.757533,-5.479666 L9.233163,-6.444491 L9.522706,-6.453482 L10.118277,-7.03877 L10.497375,-7.055358 L11.058788,-6.644427 L11.745774,-6.981383 L11.839309,-7.397042 L12.063946,-7.799808 L12.218872,-8.305824 L12.753672,-8.717763 L12.955468,-9.417772 L13.1676,-9.640626 L13.308676,-10.160362 L13.57295,-10.798566 L14.415379,-11.572369 L14.468192,-11.904752 L14.577178,-12.085361 L14.181336,-12.483657 L14.213531,-12.802035 L14.495787,-12.859396 L14.893386,-12.219048 L14.960152,-11.555574 L14.923565,-10.891325 L15.467873,-9.982337 L14.909354,-9.992129 L14.627201,-9.920919 L14.171466,-10.021378 L13.954218,-9.549495 L14.544467,-8.965861 L14.979996,-8.796104 L15.120866,-8.38215 L15.436092,-7.692812 L15.27946,-7.421925 L14.776545,-6.408498 L14.53656,-6.226959 L14.459407,-5.451761 L14.558936,-5.030598 L14.478372,-4.732605 L14.950953,-4.210389 L15.03622,-3.851367 L15.405396,-3.335301 L15.862732,-3.013537 L15.907381,-2.557389 L16.012852,-2.26764 L15.940919,-1.727673 L15.146342,-1.964015 L14.337813,-2.227875 L13.075822,-2.267097 z" fill="PapayaWhip" id="Cameroon" onclick="top.on_mouse_click(this.id)" onmouseout="top.on_mouse_out(this.id)" onmouseover="top.on_mouse_over(event, this.id)" stroke="black" stroke-width="0.1"/>
<path d="m12.995517,4.781103 L12.62076,4.438023 L12.318608,4.60623 L11.914963,5.037987 L11.093773,3.978827 L11.855122,3.426871 L11.478039,2.765619 L11.820964,2.514161 L12.495703,2.391688 L12.575284,1.948511 L13.109619,2.42874 L13.992407,2.470805 L14.29921,1.998276 L14.425456,1.333407 L14.316418,0.552627 L13.843321,-0.038758 L14.276266,-1.19693 L14.026669,-1.395677 L13.282631,-1.314184 L13.003114,-1.830896 L13.075822,-2.267097 L14.337813,-2.227875 L15.146342,-1.964015 L15.940919,-1.727673 L16.012852,-2.26764 L16.537058,-3.198255 L17.133041,-3.728197 L17.8099,-3.560196 L18.453066,-3.504386 L18.393791,-2.900443 L18.094276,-2.365722 L17.898834,-1.741832 L17.774193,-0.855659 L17.82654,-0.288923 L17.663553,0.058084 L17.638645,0.424832 L17.523716,0.74383 L16.865307,1.225816 L16.407091,1.740927 L15.972803,2.712392 L16.00629,3.535133 L15.75354,3.855165 L15.170992,4.343507 L14.582604,4.970239 L14.209035,4.793092 L14.144956,4.510009 L13.600235,4.500138 L13.25824,4.882957 L12.995517,4.781103 z" fill="PapayaWhip" id="Republic of Congo" onclick="top.on_mouse_click(this.id)" onmouseout="top.on_mouse_out(this.id)" onmouseover="top.on_mouse_over(event, this.id)" stroke="black" stroke-width="0.1"/>
<path d="m15.27946,-7.421925 L16.106232,-7.497088 L16.290562,-7.754307 L16.456184,-7.734774 L16.705988,-7.508328 L17.96493,-7.890914 L18.389555,-8.281304 L18.911022,-8.630895 L18.81201,-8.982915 L19.094007,-9.074847 L20.059685,-9.012706 L21.000868,-9.475985 L21.723822,-10.567056 L22.231129,-10.971889 L22.864164,-11.142395 L22.977545,-10.714463 L23.554304,-10.089255 L23.55725,-9.681218 L23.39478,-9.265068 L23.459013,-8.954286 L23.805813,-8.666319 L24.56737,-8.229188 L25.114931,-7.825104 L25.12413,-7.500085 L25.796648,-6.979316 L26.213417,-6.546603 L26.465908,-5.946717 L27.21341,-5.550953 L27.374226,-5.233944 L27.044065,-5.127853 L26.402761,-5.150875 L25.650455,-5.256088 L25.278797,-5.170408 L25.128834,-4.927245 L24.805029,-4.897247 L24.41053,-5.108784 L23.297215,-4.609693 L22.84148,-4.710126 L22.704124,-4.633051 L22.405125,-4.02916 L21.659122,-4.224342 L20.927591,-4.322786 L20.29068,-4.691678 L19.467785,-5.031528 L18.932312,-4.709506 L18.542982,-4.201785 L18.453066,-3.504386 L17.8099,-3.560196 L17.133041,-3.728197 L16.537058,-3.198255 L16.012852,-2.26764 L15.907381,-2.557389 L15.862732,-3.013537 L15.405396,-3.335301 L15.03622,-3.851367 L14.950953,-4.210389 L14.478372,-4.732605 L14.558936,-5.030598 L14.459407,-5.451761 L14.53656,-6.226959 L14.776545,-6.408498 L15.27946,-7.421925 z" fill="PapayaWhip" id="Central African Republic" onclick="top.on_mouse_click(this.id)" onmouseout="top.on_mouse_out(this.id)" onmouseover="top.on_mouse_over(event, this.id)" stroke="black" stroke-width="0.1"/>
<path d="m43.081226,-12.699639 L43.317852,-12.390148 L43.28638,-11.974928 L42.715874,-11.735641 L43.145306,-11.46204 L42.77685,-10.926879 L42.55493,-11.10511 L42.31414,-11.0342 L41.75557,-11.05091 L41.73959,-11.35511 L41.66176,-11.6312 L42,-12.1 L42.35156,-12.54223 L42.77964,-12.455416 L43.081226,-12.699639 z" fill="PapayaWhip" id="Djibouti" onclick="top.on_mouse_click(this.id)" onmouseout="top.on_mouse_out(this.id)" onmouseover="top.on_mouse_over(event, this.id)" stroke="black" stroke-width="0.1"/>
<path d="m11.999506,-23.471668 L8.572893,-21.56566 L5.677566,-19.601208 L4.267419,-19.155266 L3.158133,-19.057364 L3.146661,-19.693579 L2.683588,-19.85623 L2.060991,-20.142233 L1.823228,-20.61081 L-1.550055,-22.792665 L-4.923337,-24.974573 L-8.6844,-27.395744 L-8.665124,-27.58948 L-8.66559,-27.656425 L-8.674116,-28.84129 L-7.059228,-29.579227 L-6.060632,-29.7317 L-5.242129,-30.000443 L-4.859646,-30.501188 L-3.690441,-30.896952 L-3.647498,-31.637295 L-3.06898,-31.724499 L-2.616605,-32.094345 L-1.307899,-32.26289 L-1.124551,-32.651524 L-1.388049,-32.864014 L-1.733455,-33.919712 L-1.792986,-34.52792 L-2.169914,-35.168396 L-1.208603,-35.714848 L-0.127454,-35.88866 L0.503877,-36.301273 L1.466919,-36.605648 L3.161699,-36.783905 L4.815758,-36.865036 L5.32012,-36.71652 L6.26182,-37.110657 L7.330385,-37.11838 L7.737078,-36.885708 L8.420964,-36.946426 L8.217824,-36.433178 L8.376368,-35.479877 L8.140981,-34.655148 L7.524482,-34.097378 L7.612642,-33.344116 L8.430473,-32.748337 L8.439103,-32.506287 L9.055603,-32.10269 L9.48214,-30.307556 L9.805634,-29.424639 L9.859998,-28.95999 L9.683885,-28.144175 L9.756128,-27.68826 L9.629056,-27.140953 L9.716286,-26.512205 L9.319411,-26.094324 L9.910693,-25.365456 L9.948261,-24.936954 L10.303847,-24.379313 L10.771364,-24.562532 L11.560669,-24.09791 L11.999506,-23.471668 z" fill="PapayaWhip" id="Algeria" onclick="top.on_mouse_click(this.id)" onmouseout="top.on_mouse_out(this.id)" onmouseover="top.on_mouse_over(event, this.id)" stroke="black" stroke-width="0.1"/>
<path d="m34.9226,-29.50133 L34.64174,-29.09942 L34.42655,-28.34399 L34.15451,-27.8233 L33.92136,-27.6487 L33.58811,-27.97136 L33.13676,-28.41765 L32.42323,-29.85108 L32.32046,-29.76043 L32.73482,-28.70523 L33.34876,-27.69989 L34.10455,-26.14227 L34.47387,-25.59856 L34.79507,-25.03375 L35.69241,-23.92671 L35.49372,-23.75237 L35.52598,-23.10244 L36.69069,-22.20485 L36.86623,-22 L32.9,-22 L29.02,-22 L25,-22 L25,-25.6825 L25,-29.238655 L24.70007,-30.04419 L24.95762,-30.6616 L24.80287,-31.08929 L25.16482,-31.56915 L26.49533,-31.58568 L27.45762,-31.32126 L28.45048,-31.02577 L28.91353,-30.87005 L29.68342,-31.18686 L30.09503,-31.4734 L30.97693,-31.55586 L31.68796,-31.4296 L31.96041,-30.9336 L32.19247,-31.26034 L32.99392,-31.02407 L33.7734,-30.96746 L34.26544,-31.21936 L34.9226,-29.50133 z" fill="PapayaWhip" id="Egypt" onclick="top.on_mouse_click(this.id)" onmouseout="top.on_mouse_out(this.id)" onmouseover="top.on_mouse_over(event, this.id)" stroke="black" stroke-width="0.1"/>
<path d="m11.093773,3.978827 L10.066135,2.969483 L9.405245,2.144313 L8.797996,1.111301 L8.830087,0.779074 L9.04842,0.459351 L9.291351,-0.268666 L9.492889,-1.01012 L9.830284,-1.067894 L11.285079,-1.057662 L11.276449,-2.261051 L11.751665,-2.326758 L12.35938,-2.192812 L12.951334,-2.321616 L13.075822,-2.267097 L13.003114,-1.830896 L13.282631,-1.314184 L14.026669,-1.395677 L14.276266,-1.19693 L13.843321,-0.038758 L14.316418,0.552627 L14.425456,1.333407 L14.29921,1.998276 L13.992407,2.470805 L13.109619,2.42874 L12.575284,1.948511 L12.495703,2.391688 L11.820964,2.514161 L11.478039,2.765619 L11.855122,3.426871 L11.093773,3.978827 z" fill="PapayaWhip" id="Gabon" onclick="top.on_mouse_click(this.id)" onmouseout="top.on_mouse_out(this.id)" onmouseover="top.on_mouse_over(event, this.id)" stroke="black" stroke-width="0.1"/>
<path d="m42.35156,-12.54223 L42.00975,-12.86582 L41.59856,-13.45209 L41.155193,-13.77332 L40.8966,-14.11864 L40.02622,-14.519579 L39.34061,-14.53155 L39.0994,-14.74064 L38.51295,-14.50547 L37.90607,-14.95943 L37.59377,-14.2131 L36.42951,-14.42211 L36.32319,-14.822481 L36.75386,-16.291874 L36.85253,-16.95655 L37.16747,-17.26314 L37.904,-17.42754 L38.41009,-17.998306 L38.990623,-16.840626 L39.26611,-15.922723 L39.814293,-15.435647 L41.179276,-14.49108 L41.73495,-13.921037 L42.276833,-13.343992 L42.589577,-13.000421 L43.081226,-12.699639 L42.77964,-12.455416 L42.35156,-12.54223 z" fill="PapayaWhip" id="Eritrea" onclick="top.on_mouse_click(this.id)" onmouseout="top.on_mouse_out(this.id)" onmouseover="top.on_mouse_over(event, this.id)" stroke="black" stroke-width="0.1"/>
<path d="m1.060122,-5.928837 L-0.507638,-5.343473 L-1.063625,-5.000548 L-1.964707,-4.710462 L-2.856125,-4.994476 L-2.810701,-5.389051 L-3.24437,-6.250472 L-2.983585,-7.379705 L-2.56219,-8.219628 L-2.827496,-9.642461 L-2.963896,-10.395335 L-2.940409,-10.96269 L-1.203358,-11.009819 L-0.761576,-10.93693 L-0.438702,-11.098341 L0.023803,-11.018682 L-0.049785,-10.706918 L0.36758,-10.191213 L0.365901,-9.465004 L0.461192,-8.677223 L0.712029,-8.312465 L0.490957,-7.411744 L0.570384,-6.914359 L0.836931,-6.279979 L1.060122,-5.928837 z" fill="PapayaWhip" id="Ghana" onclick="top.on_mouse_click(this.id)" onmouseout="top.on_mouse_out(this.id)" onmouseover="top.on_mouse_over(event, this.id)" stroke="black" stroke-width="0.1"/>
<path d="m37.90607,-14.95943 L38.51295,-14.50547 L39.0994,-14.74064 L39.34061,-14.53155 L40.02625,-14.51959 L40.8966,-14.11864 L41.1552,-13.77333 L41.59856,-13.45209 L42.00975,-12.86582 L42.35156,-12.54223 L42,-12.1 L41.66176,-11.6312 L41.73959,-11.35511 L41.75557,-11.05091 L42.31414,-11.0342 L42.55493,-11.10511 L42.77685,-10.926879 L42.55876,-10.57258 L42.92812,-10.02194 L43.29699,-9.54048 L43.67875,-9.18358 L46.94834,-7.99688 L47.78942,-8.003 L44.9636,-5.00162 L43.66087,-4.95755 L42.76967,-4.25259 L42.12861,-4.23413 L41.855083,-3.918912 L41.1718,-3.91909 L40.76848,-4.25702 L39.85494,-3.83879 L39.559383,-3.42206 L38.89251,-3.50074 L38.67114,-3.61607 L38.43697,-3.58851 L38.120914,-3.598605 L36.85509,-4.447864 L36.15908,-4.447864 L35.817448,-4.776966 L35.817448,-5.338232 L35.298008,-5.506 L34.70702,-6.59422 L34.25032,-6.82607 L34.0751,-7.22595 L33.56829,-7.71334 L32.95418,-7.78497 L33.2948,-8.35458 L33.8255,-8.37916 L33.97498,-8.68456 L33.96162,-9.58358 L34.25745,-10.63009 L34.73115,-10.91017 L34.83163,-11.31896 L35.26049,-12.08286 L35.86363,-12.57828 L36.27022,-13.56333 L36.42951,-14.42211 L37.59377,-14.2131 L37.90607,-14.95943 z" fill="PapayaWhip" id="Ethiopia" onclick="top.on_mouse_click(this.id)" onmouseout="top.on_mouse_out(this.id)" onmouseover="top.on_mouse_over(event, this.id)" stroke="black" stroke-width="0.1"/>
<path d="m-8.439298,-7.686043 L-8.722124,-7.711674 L-8.926065,-7.309037 L-9.208786,-7.313921 L-9.403348,-7.526905 L-9.33728,-7.928534 L-9.755342,-8.541055 L-10.016567,-8.428504 L-10.230094,-8.406206 L-10.505477,-8.348896 L-10.494315,-8.715541 L-10.65477,-8.977178 L-10.622395,-9.26791 L-10.839152,-9.688246 L-11.117481,-10.045873 L-11.917277,-10.046984 L-12.150338,-9.858572 L-12.425929,-9.835834 L-12.596719,-9.620188 L-12.711958,-9.342712 L-13.24655,-8.903049 L-13.685154,-9.494744 L-14.074045,-9.886167 L-14.330076,-10.01572 L-14.579699,-10.214467 L-14.693232,-10.656301 L-14.839554,-10.876572 L-15.130311,-11.040412 L-14.685687,-11.527824 L-14.382192,-11.509272 L-14.121406,-11.677117 L-13.9008,-11.678719 L-13.743161,-11.811269 L-13.828272,-12.142644 L-13.718744,-12.247186 L-13.700476,-12.586183 L-13.217818,-12.575874 L-12.499051,-12.33209 L-12.278599,-12.35444 L-12.203565,-12.465648 L-11.658301,-12.386583 L-11.513943,-12.442988 L-11.456169,-12.076834 L-11.297574,-12.077971 L-11.036556,-12.211245 L-10.87083,-12.177887 L-10.593224,-11.923975 L-10.165214,-11.844084 L-9.890993,-12.060479 L-9.567912,-12.194243 L-9.327616,-12.334286 L-9.127474,-12.30806 L-8.905265,-12.088358 L-8.786099,-11.812561 L-8.376305,-11.393646 L-8.581305,-11.136246 L-8.620321,-10.810891 L-8.407311,-10.909257 L-8.282357,-10.792597 L-8.335377,-10.494812 L-8.029944,-10.206535 L-8.229337,-10.12902 L-8.309616,-9.789532 L-8.079114,-9.376224 L-7.8321,-8.575704 L-8.203499,-8.455453 L-8.299049,-8.316444 L-8.221792,-8.123329 L-8.280703,-7.68718 L-8.439298,-7.686043 z" fill="PapayaWhip" id="Guinea" onclick="top.on_mouse_click(this.id)" onmouseout="top.on_mouse_out(this.id)" onmouseover="top.on_mouse_over(event, this.id)" stroke="black" stroke-width="0.1"/>
<path d="m-16.841524,-13.151394 L-16.71373,-13.594959 L-15.624596,-13.623587 L-15.39877,-13.860369 L-15.081735,-13.876492 L-14.687031,-13.630357 L-14.376714,-13.62568 L-14.046992,-13.794068 L-13.844963,-13.505042 L-14.277702,-13.280585 L-14.712197,-13.298207 L-15.141163,-13.509512 L-15.511813,-13.27857 L-15.691001,-13.270353 L-15.931296,-13.130284 L-16.841524,-13.151394 z" fill="PapayaWhip" id="Gambia" onclick="top.on_mouse_click(this.id)" onmouseout="top.on_mouse_out(this.id)" onmouseover="top.on_mouse_over(event, this.id)" stroke="black" stroke-width="0.1"/>
<path d="m-15.130311,-11.040412 L-15.66418,-11.458474 L-16.085215,-11.524594 L-16.314787,-11.806515 L-16.308947,-11.958702 L-16.613838,-12.170911 L-16.677452,-12.384852 L-16.147717,-12.547762 L-15.816574,-12.515567 L-15.548477,-12.62817 L-13.700476,-12.586183 L-13.718744,-12.247186 L-13.828272,-12.142644 L-13.743161,-11.811269 L-13.9008,-11.678719 L-14.121406,-11.677117 L-14.382192,-11.509272 L-14.685687,-11.527824 L-15.130311,-11.040412 z" fill="PapayaWhip" id="Guinea Bissau" onclick="top.on_mouse_click(this.id)" onmouseout="top.on_mouse_out(this.id)" onmouseover="top.on_mouse_over(event, this.id)" stroke="black" stroke-width="0.1"/>
<path d="m-5.193863,-35.75518 L-4.591006,-35.33071 L-3.640057,-35.399857 L-2.604306,-35.179092 L-2.169914,-35.168396 L-1.792986,-34.52792 L-1.733455,-33.919712 L-1.388049,-32.864014 L-1.124551,-32.651524 L-1.307899,-32.26289 L-2.616605,-32.094345 L-3.06898,-31.724499 L-3.647498,-31.637295 L-3.690441,-30.896952 L-4.859646,-30.501188 L-5.242129,-30.000443 L-6.060632,-29.7317 L-7.059228,-29.579227 L-8.674116,-28.84129 L-8.66559,-27.656425 L-8.817809,-27.656425 L-8.817828,-27.656425 L-8.794884,-27.120695 L-9.413037,-27.088476 L-9.735343,-26.860945 L-10.189424,-26.860945 L-10.551263,-26.990808 L-11.392555,-26.883425 L-11.71822,-26.104092 L-12.030759,-26.030867 L-12.500963,-24.770117 L-13.89111,-23.69101 L-14.221168,-22.310163 L-14.630833,-21.86094 L-14.750955,-21.5006 L-17.002962,-21.420734 L-17.020428,-21.42231 L-16.973248,-21.885744 L-16.589136,-22.158234 L-16.261923,-22.67934 L-16.326414,-23.017769 L-15.982611,-23.723358 L-15.426004,-24.359135 L-15.089332,-24.520262 L-14.824645,-25.103533 L-14.800926,-25.636265 L-14.43994,-26.254417 L-13.773805,-26.618893 L-13.139942,-27.640148 L-13.121613,-27.654148 L-12.618837,-28.038185 L-11.688919,-28.148643 L-10.900957,-28.832142 L-10.399592,-29.098585 L-9.564811,-29.933575 L-9.814718,-31.177736 L-9.434793,-32.038097 L-9.300693,-32.56468 L-8.657476,-33.240246 L-7.654178,-33.697063 L-6.912544,-34.110477 L-6.244342,-35.145866 L-5.929994,-35.759987 L-5.193863,-35.75518 z" fill="PapayaWhip" id="Morocco" onclick="top.on_mouse_click(this.id)" onmouseout="top.on_mouse_out(this.id)" onmouseover="top.on_mouse_over(event, this.id)" stroke="black" stroke-width="0.1"/>
<path d="m-7.712159,-4.364566 L-7.974107,-4.355755 L-9.004794,-4.832419 L-9.91342,-5.593561 L-10.765384,-6.140711 L-11.438779,-6.785917 L-11.199802,-7.105846 L-11.146704,-7.396706 L-10.695595,-7.939464 L-10.230094,-8.406206 L-10.016567,-8.428504 L-9.755342,-8.541055 L-9.33728,-7.928534 L-9.403348,-7.526905 L-9.208786,-7.313921 L-8.926065,-7.309037 L-8.722124,-7.711674 L-8.439298,-7.686043 L-8.485446,-7.395208 L-8.385452,-6.911801 L-8.60288,-6.467564 L-8.311348,-6.193033 L-7.993693,-6.12619 L-7.570153,-5.707352 L-7.539715,-5.313345 L-7.635368,-5.188159 L-7.712159,-4.364566 z" fill="PapayaWhip" id="Liberia" onclick="top.on_mouse_click(this.id)" onmouseout="top.on_mouse_out(this.id)" onmouseover="top.on_mouse_over(event, this.id)" stroke="black" stroke-width="0.1"/>
<path d="m28.978264,28.955597 L29.325167,29.257387 L29.018415,29.743767 L28.8484,30.070051 L28.291069,30.226217 L28.107204,30.545732 L27.749397,30.645105 L26.999262,29.875954 L27.53251,29.24271 L28.074339,28.851469 L28.5417,28.647503 L28.978264,28.955597 z" fill="PapayaWhip" id="Lesotho" onclick="top.on_mouse_click(this.id)" onmouseout="top.on_mouse_out(this.id)" onmouseover="top.on_mouse_over(event, this.id)" stroke="black" stroke-width="0.1"/>
<path d="m9.492889,-1.01012 L9.305613,-1.160911 L9.649158,-2.283866 L11.276449,-2.261051 L11.285079,-1.057662 L9.830284,-1.067894 L9.492889,-1.01012 z" fill="PapayaWhip" id="Equatorial Guinea" onclick="top.on_mouse_click(this.id)" onmouseout="top.on_mouse_out(this.id)" onmouseover="top.on_mouse_over(event, this.id)" stroke="black" stroke-width="0.1"/>
<path d="m14.8513,-22.86295 L14.143871,-22.49129 L13.581425,-23.040506 L11.999506,-23.471668 L11.560669,-24.09791 L10.771364,-24.562532 L10.303847,-24.379313 L9.948261,-24.936954 L9.910693,-25.365456 L9.319411,-26.094324 L9.716286,-26.512205 L9.629056,-27.140953 L9.756128,-27.68826 L9.683885,-28.144175 L9.859998,-28.95999 L9.805634,-29.424639 L9.48214,-30.307556 L9.970017,-30.539326 L10.056575,-30.96183 L9.950225,-31.37607 L10.636901,-31.761421 L10.94479,-32.081814 L11.432253,-32.368904 L11.488787,-33.136997 L12.66331,-32.79278 L13.08326,-32.87882 L13.91868,-32.71196 L15.24563,-32.26508 L15.71394,-31.37626 L16.61162,-31.18218 L18.02109,-30.76357 L19.08641,-30.26639 L19.57404,-30.52582 L20.05335,-30.98576 L19.82033,-31.75179 L20.13397,-32.2382 L20.85452,-32.7068 L21.54298,-32.8432 L22.89576,-32.63858 L23.2368,-32.19149 L23.60913,-32.18726 L23.9275,-32.01667 L24.92114,-31.89936 L25.16482,-31.56915 L24.80287,-31.08929 L24.95762,-30.6616 L24.70007,-30.04419 L25,-29.238655 L25,-25.6825 L25,-22 L25,-20.00304 L23.85,-20 L23.83766,-19.58047 L19.84926,-21.49509 L15.86085,-23.40972 L14.8513,-22.86295 z" fill="PapayaWhip" id="Libya" onclick="top.on_mouse_click(this.id)" onmouseout="top.on_mouse_out(this.id)" onmouseover="top.on_mouse_over(event, this.id)" stroke="black" stroke-width="0.1"/>
<path d="m49.543518,12.469833 L49.808983,12.895285 L50.05651,13.555761 L50.21743,14.758789 L50.476536,15.226512 L50.37711,15.706069 L50.200275,16.000263 L49.860607,15.414253 L49.672607,15.710204 L49.863342,16.451036 L49.774563,16.875042 L49.49861,17.106035 L49.43562,17.953064 L49.041794,19.11878 L48.548542,20.496887 L47.930748,22.3915 L47.54772,23.78196 L47.09576,24.94163 L46.28248,25.178463 L45.409508,25.601435 L44.833572,25.346102 L44.03972,24.988344 L43.763767,24.460676 L43.697777,23.574116 L43.345654,22.776903 L43.25419,22.057413 L43.433296,21.336475 L43.893684,21.163307 L43.89637,20.83046 L44.374325,20.072367 L44.464397,19.435453 L44.23242,18.961994 L44.042976,18.331387 L43.963085,17.409945 L44.31247,16.850496 L44.446518,16.216219 L44.94494,16.179375 L45.50273,15.974373 L45.872993,15.793454 L46.312244,15.780018 L46.882183,15.210182 L47.70513,14.594303 L48.005215,14.091233 L47.869045,13.663869 L48.293827,13.784068 L48.84506,13.089175 L48.86351,12.487868 L49.194653,12.040557 L49.543518,12.469833 z" fill="PapayaWhip" id="Madagascar" onclick="top.on_mouse_click(this.id)" onmouseout="top.on_mouse_out(this.id)" onmouseover="top.on_mouse_over(event, this.id)" stroke="black" stroke-width="0.1"/>
<path d="m40.993,0.85829 L41.58513,1.68325 L40.88477,2.08255 L40.63785,2.49979 L40.26304,2.57309 L40.12119,3.27768 L39.80006,3.68116 L39.60489,4.34653 L39.20222,4.67677 L37.7669,3.67712 L37.69869,3.09699 L34.07262,1.05982 L33.90371,0.95 L33.89357,-0.109814 L34.18,-0.515 L34.6721,-1.17694 L35.03599,-1.90584 L34.59607,-3.05374 L34.47913,-3.5556 L34.005,-4.249885 L34.620197,-4.847123 L35.298008,-5.506 L35.817448,-5.338232 L35.817448,-4.776966 L36.15908,-4.447864 L36.85509,-4.447864 L38.120914,-3.598605 L38.43697,-3.58851 L38.67114,-3.61607 L38.89251,-3.50074 L39.559383,-3.42206 L39.85494,-3.83879 L40.76848,-4.25702 L41.1718,-3.91909 L41.855083,-3.918912 L40.98105,-2.78452 L40.993,0.85829 z" fill="PapayaWhip" id="Kenya" onclick="top.on_mouse_click(this.id)" onmouseout="top.on_mouse_out(this.id)" onmouseover="top.on_mouse_over(event, this.id)" stroke="black" stroke-width="0.1"/>
<path d="m34.55999,11.52002 L35.312397,11.439146 L36.514084,11.720938 L36.77515,11.594537 L37.471283,11.568751 L37.827644,11.268769 L38.42756,11.285202 L39.52103,10.896854 L40.31659,10.317096 L40.478386,10.765441 L40.437252,11.761711 L40.56081,12.639177 L40.59962,14.201975 L40.775475,14.691764 L40.47725,15.406294 L40.089264,16.100775 L39.45256,16.720892 L38.53835,17.101023 L37.411133,17.586369 L36.28128,18.659689 L35.896496,18.84226 L35.1984,19.55281 L34.786385,19.784012 L34.701893,20.497044 L35.17613,21.25436 L35.37343,21.840837 L35.38585,22.14 L35.562546,22.09 L35.533936,23.070787 L35.371773,23.535358 L35.60747,23.706564 L35.458748,24.12261 L35.040733,24.478352 L34.215824,24.816315 L33.01321,25.357573 L32.57463,25.727318 L32.660362,26.148584 L32.915955,26.215866 L32.83012,26.742191 L32.071667,26.73382 L31.985779,26.29178 L31.837778,25.843332 L31.752407,25.484283 L31.93059,24.369417 L31.670399,23.65897 L31.191408,22.25151 L32.244987,21.11649 L32.508694,20.395292 L32.659744,20.30429 L32.77271,19.715591 L32.611996,19.419382 L32.654884,18.67209 L32.84986,17.979057 L32.847637,16.713398 L32.32824,16.392075 L31.852041,16.319418 L31.636497,16.07199 L31.173063,15.860944 L30.338955,15.880839 L30.274256,15.507787 L30.179482,14.796099 L33.214024,13.97186 L33.7897,14.451831 L34.064823,14.35995 L34.459633,14.61301 L34.517666,15.013709 L34.30729,15.478641 L34.38129,16.18356 L35.03381,16.8013 L35.33906,16.10744 L35.771904,15.896859 L35.686844,14.611046 L35.267956,13.887834 L34.90715,13.565425 L34.55999,13.579998 L34.280006,12.280025 L34.55999,11.52002 z" fill="PapayaWhip" id="Mozambique" onclick="top.on_mouse_click(this.id)" onmouseout="top.on_mouse_out(this.id)" onmouseover="top.on_mouse_over(event, this.id)" stroke="black" stroke-width="0.1"/>
<path d="m-12.17075,-14.616834 L-12.830658,-15.303692 L-13.435738,-16.039383 L-14.099521,-16.304302 L-14.577348,-16.598265 L-15.135737,-16.587282 L-15.623666,-16.369337 L-16.12069,-16.455664 L-16.463099,-16.135036 L-16.549707,-16.673891 L-16.270552,-17.166964 L-16.146347,-18.108482 L-16.256884,-19.096716 L-16.377651,-19.593817 L-16.277838,-20.092522 L-16.536324,-20.567865 L-17.063423,-20.999752 L-16.845194,-21.333323 L-12.929102,-21.32707 L-13.118754,-22.77122 L-12.874222,-23.284832 L-11.937224,-23.374594 L-11.969419,-25.933353 L-8.687294,-25.881056 L-8.6844,-27.395744 L-4.923337,-24.974573 L-6.453787,-24.95659 L-5.971129,-20.640833 L-5.488523,-16.325102 L-5.315277,-16.201855 L-5.537744,-15.50169 L-9.550238,-15.486497 L-9.700255,-15.264107 L-10.086846,-15.330486 L-10.650791,-15.132746 L-11.349095,-15.411256 L-11.666078,-15.388208 L-11.834208,-14.799097 L-12.17075,-14.616834 z" fill="PapayaWhip" id="Mauritania" onclick="top.on_mouse_click(this.id)" onmouseout="top.on_mouse_out(this.id)" onmouseover="top.on_mouse_over(event, this.id)" stroke="black" stroke-width="0.1"/>
<path d="m2.154474,-11.94015 L2.177108,-12.625018 L1.024103,-12.851826 L0.993046,-13.33575 L0.429928,-13.988733 L0.295646,-14.444235 L0.374892,-14.928908 L1.015783,-14.968182 L1.385528,-15.323561 L2.749993,-15.409525 L3.638259,-15.56812 L3.723422,-16.184284 L4.27021,-16.852226 L4.267419,-19.155266 L5.677566,-19.601208 L8.572893,-21.56566 L11.999506,-23.471668 L13.581425,-23.040506 L14.143871,-22.49129 L14.8513,-22.86295 L15.096888,-21.30852 L15.471077,-21.048456 L15.487148,-20.730415 L15.903247,-20.387619 L15.685741,-19.95718 L15.300441,-17.92795 L15.247731,-16.627306 L13.972202,-15.684366 L13.540394,-14.367134 L13.956699,-13.996691 L13.954477,-13.353449 L14.595781,-13.330427 L14.495787,-12.859396 L14.213531,-12.802035 L14.181336,-12.483657 L13.995353,-12.461565 L13.318702,-13.556356 L13.083987,-13.596147 L12.302071,-13.037189 L11.527803,-13.32898 L10.989593,-13.387323 L10.701032,-13.246918 L10.114814,-13.277252 L9.524928,-12.851102 L9.014933,-12.826659 L7.804671,-13.343527 L7.330747,-13.098038 L6.820442,-13.115091 L6.445426,-13.492768 L5.443058,-13.865924 L4.368344,-13.747482 L4.107946,-13.531216 L3.967283,-12.956109 L3.680634,-12.552903 L3.61118,-11.660167 L2.848643,-12.235636 L2.490164,-12.233052 L2.154474,-11.94015 z" fill="PapayaWhip" id="Niger" onclick="top.on_mouse_click(this.id)" onmouseout="top.on_mouse_out(this.id)" onmouseover="top.on_mouse_over(event, this.id)" stroke="black" stroke-width="0.1"/>
<path d="m30.419106,1.134659 L30.816135,1.698914 L30.758308,2.28725 L30.469696,2.413858 L29.938358,2.348487 L29.632175,2.917858 L29.024925,2.839258 L29.11748,2.292211 L29.254835,2.21511 L29.291887,1.620056 L29.579466,1.341313 L29.82152,1.443322 L30.419106,1.134659 z" fill="PapayaWhip" id="Rwanda" onclick="top.on_mouse_click(this.id)" onmouseout="top.on_mouse_out(this.id)" onmouseover="top.on_mouse_over(event, this.id)" stroke="black" stroke-width="0.1"/>
<path d="m-8.794884,-27.120695 L-8.817828,-27.656425 L-8.66559,-27.656425 L-8.665124,-27.58948 L-8.6844,-27.395744 L-8.687294,-25.881056 L-11.969419,-25.933353 L-11.937224,-23.374594 L-12.874222,-23.284832 L-13.118754,-22.77122 L-12.929102,-21.32707 L-16.845194,-21.333323 L-17.063423,-20.999752 L-17.020428,-21.42231 L-17.002962,-21.420734 L-14.750955,-21.5006 L-14.630833,-21.86094 L-14.221168,-22.310163 L-13.89111,-23.69101 L-12.500963,-24.770117 L-12.030759,-26.030867 L-11.71822,-26.104092 L-11.392555,-26.883425 L-10.551263,-26.990808 L-10.189424,-26.860945 L-9.735343,-26.860945 L-9.413037,-27.088476 L-8.794884,-27.120695 z" fill="PapayaWhip" id="Western Sahara" onclick="top.on_mouse_click(this.id)" onmouseout="top.on_mouse_out(this.id)" onmouseover="top.on_mouse_over(event, this.id)" stroke="black" stroke-width="0.1"/>
<path d="m8.500288,-4.771983 L7.462108,-4.412108 L7.082596,-4.464689 L6.698072,-4.240594 L5.898173,-4.262453 L5.362805,-4.887971 L5.033574,-5.611802 L4.325607,-6.270651 L3.57418,-6.2583 L2.691702,-6.258817 L2.749063,-7.870734 L2.723793,-8.506845 L2.912308,-9.137608 L3.220352,-9.444153 L3.705438,-10.06321 L3.60007,-10.332186 L3.797112,-10.734746 L3.572216,-11.327939 L3.61118,-11.660167 L3.680634,-12.552903 L3.967283,-12.956109 L4.107946,-13.531216 L4.368344,-13.747482 L5.443058,-13.865924 L6.445426,-13.492768 L6.820442,-13.115091 L7.330747,-13.098038 L7.804671,-13.343527 L9.014933,-12.826659 L9.524928,-12.851102 L10.114814,-13.277252 L10.701032,-13.246918 L10.989593,-13.387323 L11.527803,-13.32898 L12.302071,-13.037189 L13.083987,-13.596147 L13.318702,-13.556356 L13.995353,-12.461565 L14.181336,-12.483657 L14.577178,-12.085361 L14.468192,-11.904752 L14.415379,-11.572369 L13.57295,-10.798566 L13.308676,-10.160362 L13.1676,-9.640626 L12.955468,-9.417772 L12.753672,-8.717763 L12.218872,-8.305824 L12.063946,-7.799808 L11.839309,-7.397042 L11.745774,-6.981383 L11.058788,-6.644427 L10.497375,-7.055358 L10.118277,-7.03877 L9.522706,-6.453482 L9.233163,-6.444491 L8.757533,-5.479666 L8.500288,-4.771983 z" fill="PapayaWhip" id="Nigeria" onclick="top.on_mouse_click(this.id)" onmouseout="top.on_mouse_out(this.id)" onmouseover="top.on_mouse_over(event, this.id)" stroke="black" stroke-width="0.1"/>
<path d="m33.963394,-9.464285 L33.824963,-9.484061 L33.842133,-9.981915 L33.72196,-10.325262 L33.20694,-10.720112 L33.086765,-11.441141 L33.20694,-12.179338 L32.74342,-12.248008 L32.67475,-12.024832 L32.07389,-11.97333 L32.314236,-11.681484 L32.40007,-11.080626 L31.850716,-10.531271 L31.352861,-9.810241 L30.837841,-9.707237 L29.99664,-10.290927 L29.618958,-10.084919 L29.515953,-9.793074 L29.000933,-9.604232 L28.966597,-9.398224 L27.97089,-9.398224 L27.833551,-9.604232 L27.11252,-9.638567 L26.752007,-9.466893 L26.477327,-9.55273 L25.962307,-10.136421 L25.790632,-10.411099 L25.069605,-10.27376 L24.794926,-9.810241 L24.537415,-8.917538 L24.194069,-8.728696 L23.88698,-8.61973 L23.805813,-8.666319 L23.459013,-8.954286 L23.39478,-9.265068 L23.55725,-9.681218 L23.554304,-10.089255 L22.977545,-10.714463 L22.864164,-11.142395 L22.87622,-11.38461 L22.50869,-11.67936 L22.49762,-12.26024 L22.28801,-12.64605 L21.93681,-12.58818 L22.03759,-12.95546 L22.29658,-13.37232 L22.18329,-13.78648 L22.51202,-14.09318 L22.30351,-14.32682 L22.56795,-14.94429 L23.02459,-15.68072 L23.88689,-15.61084 L23.83766,-19.58047 L23.85,-20 L25,-20.00304 L25,-22 L29.02,-22 L32.9,-22 L36.86623,-22 L37.18872,-21.01885 L36.96941,-20.83744 L37.1147,-19.80796 L37.48179,-18.61409 L37.86276,-18.36786 L38.41009,-17.998306 L37.904,-17.42754 L37.16747,-17.26314 L36.85253,-16.95655 L36.75389,-16.29186 L36.32322,-14.82249 L36.42951,-14.42211 L36.27022,-13.56333 L35.86363,-12.57828 L35.26049,-12.08286 L34.83163,-11.31896 L34.73115,-10.91017 L34.25745,-10.63009 L33.96162,-9.58358 L33.963394,-9.464285 z" fill="PapayaWhip" id="Sudan" onclick="top.on_mouse_click(this.id)" onmouseout="top.on_mouse_out(this.id)" onmouseover="top.on_mouse_over(event, this.id)" stroke="black" stroke-width="0.1"/>
<path d="m34.55999,11.52002 L34.280006,12.280025 L34.55999,13.579998 L34.90715,13.565425 L35.267956,13.887834 L35.686844,14.611046 L35.771904,15.896859 L35.33906,16.10744 L35.03381,16.8013 L34.38129,16.18356 L34.30729,15.478641 L34.517666,15.013709 L34.459633,14.61301 L34.064823,14.35995 L33.7897,14.451831 L33.214024,13.97186 L32.688164,13.712858 L32.991764,12.783871 L33.306423,12.435778 L33.11429,11.607198 L33.31531,10.79655 L33.485687,10.525559 L33.231388,9.676722 L32.759377,9.230599 L33.73973,9.417151 L33.940838,9.693674 L34.280006,10.16 L34.55999,11.52002 z" fill="PapayaWhip" id="Malawi" onclick="top.on_mouse_click(this.id)" onmouseout="top.on_mouse_out(this.id)" onmouseover="top.on_mouse_over(event, this.id)" stroke="black" stroke-width="0.1"/>
<path d="m16.344976,28.576706 L15.601818,27.821247 L15.210472,27.090956 L14.989711,26.117373 L14.743214,25.39292 L14.408144,23.853014 L14.385717,22.656652 L14.257714,22.111208 L13.868642,21.699038 L13.352498,20.872833 L12.826845,19.673166 L12.608564,19.04535 L11.794919,18.06913 L11.734199,17.30189 L12.215461,17.111668 L12.814081,16.941343 L13.462362,16.971212 L14.058501,17.423382 L14.209707,17.353102 L18.26331,17.309952 L18.956186,17.789095 L21.377176,17.930635 L23.215048,17.523115 L24.033861,17.295843 L24.682348,17.35341 L25.07695,17.578823 L25.084442,17.661816 L24.520704,17.887125 L24.217365,17.889347 L23.579006,18.281261 L23.196857,17.869038 L21.65504,18.219147 L20.91064,18.252218 L20.881134,21.814327 L19.895458,21.849157 L19.895767,24.76779 L19.894733,28.461105 L19.002127,28.972443 L18.4649,29.045462 L17.836151,28.856379 L17.387497,28.783514 L17.21893,28.355944 L16.824017,28.082163 L16.344976,28.576706 z" fill="PapayaWhip" id="Namibia" onclick="top.on_mouse_click(this.id)" onmouseout="top.on_mouse_out(this.id)" onmouseover="top.on_mouse_over(event, this.id)" stroke="black" stroke-width="0.1"/>
<path d="m-16.71373,-13.594959 L-17.126106,-14.373516 L-17.625044,-14.729541 L-17.185173,-14.919477 L-16.700706,-15.621527 L-16.463099,-16.135036 L-16.12069,-16.455664 L-15.623666,-16.369337 L-15.135737,-16.587282 L-14.577348,-16.598265 L-14.099521,-16.304302 L-13.435738,-16.039383 L-12.830658,-15.303692 L-12.17075,-14.616834 L-12.124887,-13.994727 L-11.927716,-13.422075 L-11.553398,-13.141214 L-11.467899,-12.754519 L-11.513943,-12.442988 L-11.658301,-12.386583 L-12.203565,-12.465648 L-12.278599,-12.35444 L-12.499051,-12.33209 L-13.217818,-12.575874 L-13.700476,-12.586183 L-15.548477,-12.62817 L-15.816574,-12.515567 L-16.147717,-12.547762 L-16.677452,-12.384852 L-16.841524,-13.151394 L-15.931296,-13.130284 L-15.691001,-13.270353 L-15.511813,-13.27857 L-15.141163,-13.509512 L-14.712197,-13.298207 L-14.277702,-13.280585 L-13.844963,-13.505042 L-14.046992,-13.794068 L-14.376714,-13.62568 L-14.687031,-13.630357 L-15.081735,-13.876492 L-15.39877,-13.860369 L-15.624596,-13.623587 L-16.71373,-13.594959 z" fill="PapayaWhip" id="Senegal" onclick="top.on_mouse_click(this.id)" onmouseout="top.on_mouse_out(this.id)" onmouseover="top.on_mouse_over(event, this.id)" stroke="black" stroke-width="0.1"/>
<path d="m33.963394,-9.464285 L33.97498,-8.68456 L33.8255,-8.37916 L33.2948,-8.35458 L32.95418,-7.78497 L33.56829,-7.71334 L34.0751,-7.22595 L34.25032,-6.82607 L34.70702,-6.59422 L35.298008,-5.506 L34.620197,-4.847123 L34.005,-4.249885 L33.39,-3.79 L32.68642,-3.79232 L31.88145,-3.55827 L31.24556,-3.7819 L30.83385,-3.50917 L29.95349,-4.1737 L29.715996,-4.600805 L29.159079,-4.389267 L28.696678,-4.455077 L28.428993,-4.287155 L27.979977,-4.408413 L27.374226,-5.233944 L27.21341,-5.550953 L26.465908,-5.946717 L26.213417,-6.546603 L25.796648,-6.979316 L25.12413,-7.500085 L25.114931,-7.825104 L24.56737,-8.229188 L23.88698,-8.61973 L24.194069,-8.728696 L24.537415,-8.917538 L24.794926,-9.810241 L25.069605,-10.27376 L25.790632,-10.411099 L25.962307,-10.136421 L26.477327,-9.55273 L26.752007,-9.466893 L27.11252,-9.638567 L27.833551,-9.604232 L27.97089,-9.398224 L28.966597,-9.398224 L29.000933,-9.604232 L29.515953,-9.793074 L29.618958,-10.084919 L29.99664,-10.290927 L30.837841,-9.707237 L31.352861,-9.810241 L31.850716,-10.531271 L32.40007,-11.080626 L32.314236,-11.681484 L32.07389,-11.97333 L32.67475,-12.024832 L32.74342,-12.248008 L33.20694,-12.179338 L33.086765,-11.441141 L33.20694,-10.720112 L33.72196,-10.325262 L33.842133,-9.981915 L33.824963,-9.484061 L33.963394,-9.464285 z" fill="PapayaWhip" id="South Sudan" onclick="top.on_mouse_click(this.id)" onmouseout="top.on_mouse_out(this.id)" onmouseover="top.on_mouse_over(event, this.id)" stroke="black" stroke-width="0.1"/>
<path d="m-12.17075,-14.616834 L-11.834208,-14.799097 L-11.666078,-15.388208 L-11.349095,-15.411256 L-10.650791,-15.132746 L-10.086846,-15.330486 L-9.700255,-15.264107 L-9.550238,-15.486497 L-5.537744,-15.50169 L-5.315277,-16.201855 L-5.488523,-16.325102 L-5.971129,-20.640833 L-6.453787,-24.95659 L-4.923337,-24.974573 L-1.550055,-22.792665 L1.823228,-20.61081 L2.060991,-20.142233 L2.683588,-19.85623 L3.146661,-19.693579 L3.158133,-19.057364 L4.267419,-19.155266 L4.27021,-16.852226 L3.723422,-16.184284 L3.638259,-15.56812 L2.749993,-15.409525 L1.385528,-15.323561 L1.015783,-14.968182 L0.374892,-14.928908 L-0.266257,-14.924309 L-0.515854,-15.116158 L-1.066363,-14.973815 L-2.001035,-14.559008 L-2.191825,-14.246418 L-2.967694,-13.79815 L-3.103707,-13.541267 L-3.522803,-13.337662 L-4.006391,-13.472485 L-4.280405,-13.228444 L-4.427166,-12.542646 L-5.220942,-11.713859 L-5.197843,-11.375146 L-5.470565,-10.95127 L-5.404342,-10.370737 L-5.816926,-10.222555 L-6.050452,-10.096361 L-6.205223,-10.524061 L-6.493965,-10.411303 L-6.666461,-10.430811 L-6.850507,-10.138994 L-7.622759,-10.147236 L-7.89959,-10.297382 L-8.029944,-10.206535 L-8.335377,-10.494812 L-8.282357,-10.792597 L-8.407311,-10.909257 L-8.620321,-10.810891 L-8.581305,-11.136246 L-8.376305,-11.393646 L-8.786099,-11.812561 L-8.905265,-12.088358 L-9.127474,-12.30806 L-9.327616,-12.334286 L-9.567912,-12.194243 L-9.890993,-12.060479 L-10.165214,-11.844084 L-10.593224,-11.923975 L-10.87083,-12.177887 L-11.036556,-12.211245 L-11.297574,-12.077971 L-11.456169,-12.076834 L-11.513943,-12.442988 L-11.467899,-12.754519 L-11.553398,-13.141214 L-11.927716,-13.422075 L-12.124887,-13.994727 L-12.17075,-14.616834 z" fill="PapayaWhip" id="Mali" onclick="top.on_mouse_click(this.id)" onmouseout="top.on_mouse_out(this.id)" onmouseover="top.on_mouse_over(event, this.id)" stroke="black" stroke-width="0.1"/>
<path d="m48.93813,-9.451749 L48.486736,-8.837626 L47.78942,-8.003 L46.948326,-7.996877 L43.67875,-9.18358 L43.296974,-9.540477 L42.92812,-10.02194 L42.55876,-10.57258 L42.77685,-10.926879 L43.145306,-11.46204 L43.47066,-11.27771 L43.666668,-10.864169 L44.117805,-10.445538 L44.614258,-10.442205 L45.556942,-10.698029 L46.6454,-10.816549 L47.525658,-11.127228 L48.021595,-11.193064 L48.378784,-11.375482 L48.948208,-11.410622 L48.942005,-11.394266 L48.93849,-10.982327 L48.938232,-9.9735 L48.93813,-9.451749 z" fill="PapayaWhip" id="Somaliland" onclick="top.on_mouse_click(this.id)" onmouseout="top.on_mouse_out(this.id)" onmouseover="top.on_mouse_over(event, this.id)" stroke="black" stroke-width="0.1"/>
<path d="m32.071667,26.73382 L31.86806,27.177927 L31.282772,27.28588 L30.685963,26.743845 L30.676609,26.398079 L30.949667,26.02265 L31.04408,25.731453 L31.333158,25.66019 L31.837778,25.843332 L31.985779,26.29178 L32.071667,26.73382 z" fill="PapayaWhip" id="Swaziland" onclick="top.on_mouse_click(this.id)" onmouseout="top.on_mouse_out(this.id)" onmouseover="top.on_mouse_over(event, this.id)" stroke="black" stroke-width="0.1"/>
<path d="m14.495787,-12.859396 L14.595781,-13.330427 L13.954477,-13.353449 L13.956699,-13.996691 L13.540394,-14.367134 L13.97217,-15.68437 L15.247731,-16.627306 L15.300441,-17.92795 L15.685741,-19.95718 L15.903247,-20.387619 L15.487148,-20.730415 L15.47106,-21.04845 L15.096888,-21.30852 L14.8513,-22.86295 L15.86085,-23.40972 L19.84926,-21.49509 L23.83766,-19.58047 L23.88689,-15.61084 L23.02459,-15.68072 L22.56795,-14.94429 L22.30351,-14.32682 L22.51202,-14.09318 L22.18329,-13.78648 L22.29658,-13.37232 L22.03759,-12.95546 L21.93681,-12.58818 L22.28801,-12.64605 L22.49762,-12.26024 L22.50869,-11.67936 L22.87622,-11.38461 L22.864164,-11.142395 L22.231129,-10.971889 L21.723822,-10.567056 L21.000868,-9.475985 L20.059685,-9.012706 L19.094007,-9.074847 L18.81201,-8.982915 L18.911022,-8.630895 L18.389555,-8.281304 L17.96493,-7.890914 L16.705988,-7.508328 L16.456184,-7.734774 L16.290562,-7.754307 L16.106232,-7.497088 L15.27946,-7.421925 L15.436092,-7.692812 L15.120866,-8.38215 L14.979996,-8.796104 L14.544467,-8.965861 L13.954218,-9.549495 L14.171466,-10.021378 L14.627201,-9.920919 L14.909354,-9.992129 L15.467873,-9.982337 L14.923565,-10.891325 L14.960152,-11.555574 L14.89336,-12.21905 L14.495787,-12.859396 z" fill="PapayaWhip" id="Chad" onclick="top.on_mouse_click(this.id)" onmouseout="top.on_mouse_out(this.id)" onmouseover="top.on_mouse_over(event, this.id)" stroke="black" stroke-width="0.1"/>
<path d="m49.72862,-11.5789 L50.25878,-11.67957 L50.73202,-12.0219 L51.1112,-12.02464 L51.13387,-11.74815 L51.04153,-11.16651 L51.04531,-10.6409 L50.83418,-10.27972 L50.55239,-9.19874 L50.07092,-8.08173 L49.4527,-6.80466 L48.59455,-5.33911 L47.74079,-4.2194 L46.56476,-2.85529 L45.56399,-2.04576 L44.06815,-1.05283 L43.13597,-0.2922 L42.04157,0.91916 L41.81095,1.44647 L41.58513,1.68325 L40.993,0.85829 L40.98105,-2.78452 L41.855083,-3.918912 L42.12861,-4.23413 L42.76967,-4.25259 L43.66087,-4.95755 L44.9636,-5.00162 L47.78942,-8.003 L48.486736,-8.837626 L48.93813,-9.451749 L48.938232,-9.9735 L48.93849,-10.982327 L48.942005,-11.394266 L48.948204,-11.410617 L49.26776,-11.43033 L49.72862,-11.5789 z" fill="PapayaWhip" id="Somalia" onclick="top.on_mouse_click(this.id)" onmouseout="top.on_mouse_out(this.id)" onmouseover="top.on_mouse_over(event, this.id)" stroke="black" stroke-width="0.1"/>
<path d="m-11.438779,-6.785917 L-11.708195,-6.860098 L-12.428099,-7.262942 L-12.949049,-7.798646 L-13.124025,-8.163946 L-13.24655,-8.903049 L-12.711958,-9.342712 L-12.596719,-9.620188 L-12.425929,-9.835834 L-12.150338,-9.858572 L-11.917277,-10.046984 L-11.117481,-10.045873 L-10.839152,-9.688246 L-10.622395,-9.26791 L-10.65477,-8.977178 L-10.494315,-8.715541 L-10.505477,-8.348896 L-10.230094,-8.406206 L-10.695595,-7.939464 L-11.146704,-7.396706 L-11.199802,-7.105846 L-11.438779,-6.785917 z" fill="PapayaWhip" id="Sierra Leone" onclick="top.on_mouse_click(this.id)" onmouseout="top.on_mouse_out(this.id)" onmouseover="top.on_mouse_over(event, this.id)" stroke="black" stroke-width="0.1"/>
<path d="m1.865241,-6.142158 L1.060122,-5.928837 L0.836931,-6.279979 L0.570384,-6.914359 L0.490957,-7.411744 L0.712029,-8.312465 L0.461192,-8.677223 L0.365901,-9.465004 L0.36758,-10.191213 L-0.049785,-10.706918 L0.023803,-11.018682 L0.899563,-10.997339 L0.772336,-10.470808 L1.077795,-10.175607 L1.425061,-9.825395 L1.463043,-9.334624 L1.664478,-9.12859 L1.618951,-6.832038 L1.865241,-6.142158 z" fill="PapayaWhip" id="Togo" onclick="top.on_mouse_click(this.id)" onmouseout="top.on_mouse_out(this.id)" onmouseover="top.on_mouse_over(event, this.id)" stroke="black" stroke-width="0.1"/>
<path d="m9.48214,-30.307556 L9.055603,-32.10269 L8.439103,-32.506287 L8.430473,-32.748337 L7.612642,-33.344116 L7.524482,-34.097378 L8.140981,-34.655148 L8.376368,-35.479877 L8.217824,-36.433178 L8.420964,-36.946426 L9.509994,-37.349995 L10.210002,-37.230003 L10.18065,-36.724037 L11.028867,-37.092102 L11.100026,-36.899998 L10.600005,-36.41 L10.593287,-35.947445 L10.939519,-35.698982 L10.807847,-34.833508 L10.149593,-34.330772 L10.339659,-33.785744 L10.856836,-33.76874 L11.108501,-33.293343 L11.488787,-33.136997 L11.432253,-32.368904 L10.94479,-32.081814 L10.636901,-31.761421 L9.950225,-31.37607 L10.056575,-30.96183 L9.970017,-30.539326 L9.48214,-30.307556 z" fill="PapayaWhip" id="Tunisia" onclick="top.on_mouse_click(this.id)" onmouseout="top.on_mouse_out(this.id)" onmouseover="top.on_mouse_over(event, this.id)" stroke="black" stroke-width="0.1"/>
<path d="m31.86617,1.02736 L30.76986,1.01455 L30.419106,1.134659 L29.82152,1.443322 L29.579466,1.341313 L29.587837,0.587406 L29.8195,0.2053 L29.875778,-0.59738 L30.086155,-1.062313 L30.468508,-1.583805 L30.85267,-1.849396 L31.174149,-2.204465 L30.77332,-2.33989 L30.83385,-3.50917 L31.24556,-3.7819 L31.88145,-3.55827 L32.68642,-3.79232 L33.39,-3.79 L34.005,-4.249885 L34.47913,-3.5556 L34.59607,-3.05374 L35.03599,-1.90584 L34.6721,-1.17694 L34.18,-0.515 L33.89357,-0.109814 L33.90371,0.95 L31.86617,1.02736 z" fill="PapayaWhip" id="Uganda" onclick="top.on_mouse_click(this.id)" onmouseout="top.on_mouse_out(this.id)" onmouseover="top.on_mouse_over(event, this.id)" stroke="black" stroke-width="0.1"/>
<path d="m33.90371,0.95 L34.07262,1.05982 L37.69869,3.09699 L37.7669,3.67712 L39.20222,4.67677 L38.74054,5.90895 L38.79977,6.47566 L39.44,6.84 L39.47,7.1 L39.19469,7.7039 L39.25203,8.00781 L39.18652,8.48551 L39.53574,9.11237 L39.9496,10.0984 L40.31659,10.3171 L39.521,10.89688 L38.42756,11.285202 L37.82764,11.26879 L37.47129,11.56876 L36.77515,11.594537 L36.514084,11.720938 L35.312397,11.439146 L34.55999,11.52002 L34.28,10.16 L33.940838,9.693674 L33.73972,9.41715 L32.759377,9.230599 L32.191864,8.930359 L31.556349,8.762049 L31.157751,8.594579 L30.74,8.34 L30.2,7.08 L29.62,6.52 L29.419992,5.939999 L29.519987,5.419979 L29.339998,4.499983 L29.753511,4.452389 L30.11632,4.09012 L30.50554,3.56858 L30.75224,3.35931 L30.74301,3.03431 L30.52766,2.80762 L30.46967,2.41383 L30.758308,2.28725 L30.816135,1.698914 L30.419106,1.134659 L30.76986,1.01455 L31.86617,1.02736 L33.90371,0.95 z" fill="PapayaWhip" id="United Republic of Tanzania" onclick="top.on_mouse_click(this.id)" onmouseout="top.on_mouse_out(this.id)" onmouseover="top.on_mouse_over(event, this.id)" stroke="black" stroke-width="0.1"/>
<path d="m31.521002,29.257387 L31.325562,29.401978 L30.901764,29.909958 L30.622812,30.423777 L30.055716,31.140268 L28.925552,32.172043 L28.219755,32.771954 L27.464607,33.226963 L26.419453,33.61495 L25.909664,33.66704 L25.780628,33.944645 L25.172861,33.796852 L24.677853,33.987175 L23.594044,33.794476 L22.98819,33.91643 L22.574158,33.864082 L21.542799,34.25884 L20.689053,34.417175 L20.07126,34.795135 L19.616405,34.819164 L19.193277,34.4626 L18.855314,34.444305 L18.424643,33.99787 L18.37741,34.13652 L18.2445,33.867752 L18.25008,33.28143 L17.92519,32.61129 L18.24791,32.42913 L18.221762,31.661633 L17.566917,30.725721 L17.064417,29.878641 L17.062918,29.875954 L16.344976,28.576706 L16.824017,28.082163 L17.21893,28.355944 L17.387497,28.783514 L17.836151,28.856379 L18.4649,29.045462 L19.002127,28.972443 L19.894733,28.461105 L19.895767,24.76779 L20.165726,24.917961 L20.75861,25.868135 L20.66647,26.477453 L20.889608,26.828543 L21.605896,26.726534 L22.105968,26.280256 L22.579533,25.979448 L22.82427,25.50046 L23.312098,25.26869 L23.73357,25.39013 L24.211267,25.670216 L25.025171,25.71967 L25.664665,25.486816 L25.765848,25.174845 L25.941652,24.696373 L26.485752,24.616327 L26.786407,24.24069 L27.11941,23.574324 L28.017237,22.827753 L29.432188,22.091312 L29.839037,22.102217 L30.322884,22.271612 L30.659864,22.151567 L31.191408,22.25151 L31.670399,23.65897 L31.93059,24.369417 L31.752407,25.484283 L31.837778,25.843332 L31.333158,25.66019 L31.04408,25.731453 L30.949667,26.02265 L30.676609,26.398079 L30.685963,26.743845 L31.282772,27.28588 L31.86806,27.177927 L32.071667,26.73382 L32.83012,26.742191 L32.580265,27.470158 L32.46213,28.30101 L32.20339,28.752405 L31.521002,29.257387 z" fill="PapayaWhip" id="South Africa" onclick="top.on_mouse_click(this.id)" onmouseout="top.on_mouse_out(this.id)" onmouseover="top.on_mouse_over(event, this.id)" stroke="black" stroke-width="0.1"/>
<path d="m32.759377,9.230599 L33.231388,9.676722 L33.485687,10.525559 L33.31531,10.79655 L33.11429,11.607198 L33.306423,12.435778 L32.991764,12.783871 L32.688164,13.712858 L33.214024,13.97186 L30.179482,14.796099 L30.274256,15.507787 L29.516834,15.644678 L28.947462,16.04305 L28.825869,16.38975 L28.467907,16.4684 L27.598244,17.29083 L27.044428,17.938026 L26.706774,17.96123 L26.381935,17.846043 L25.264227,17.73654 L25.084442,17.661816 L25.07695,17.578823 L24.682348,17.35341 L24.033861,17.295843 L23.215048,17.523115 L22.562477,16.89845 L21.887842,16.08031 L21.933886,12.898437 L24.016136,12.911046 L23.930922,12.565848 L24.079905,12.191297 L23.904154,11.722282 L24.017895,11.237298 L23.912214,10.926826 L24.257154,10.951993 L24.314516,11.262826 L24.78317,11.238694 L25.418118,11.330936 L25.75231,11.784965 L26.553087,11.92444 L27.16442,11.608748 L27.3888,12.132747 L28.15511,12.272481 L28.523561,12.698604 L28.934286,13.248958 L29.699614,13.257227 L29.616001,12.178895 L29.341549,12.360744 L28.642418,11.971569 L28.372253,11.793647 L28.49607,10.789884 L28.673681,9.605925 L28.449871,9.164918 L28.734867,8.526559 L29.002913,8.407032 L30.346087,8.238257 L30.740015,8.340007 L31.157751,8.594579 L31.556349,8.762049 L32.191864,8.930359 L32.759377,9.230599 z" fill="PapayaWhip" id="Zambia" onclick="top.on_mouse_click(this.id)" onmouseout="top.on_mouse_out(this.id)" onmouseover="top.on_mouse_over(event, this.id)" stroke="black" stroke-width="0.1"/>
<path d="m31.191408,22.25151 L30.659864,22.151567 L30.322884,22.271612 L29.839037,22.102217 L29.432188,22.091312 L28.794657,21.639454 L28.02137,21.485975 L27.727228,20.851803 L27.724747,20.49906 L27.296505,20.39152 L26.164791,19.293085 L25.850391,18.714413 L25.649162,18.536026 L25.264227,17.73654 L26.381935,17.846043 L26.706774,17.96123 L27.044428,17.938026 L27.598244,17.29083 L28.467907,16.4684 L28.825869,16.38975 L28.947462,16.04305 L29.516834,15.644678 L30.274256,15.507787 L30.338955,15.880839 L31.173063,15.860944 L31.636497,16.07199 L31.852041,16.319418 L32.32824,16.392075 L32.847637,16.713398 L32.84986,17.979057 L32.654884,18.67209 L32.611996,19.419382 L32.77271,19.715591 L32.659744,20.30429 L32.508694,20.395292 L32.244987,21.11649 L31.191408,22.25151 z" fill="PapayaWhip" id="Zimbabwe" onclick="top.on_mouse_click(this.id)" onmouseout="top.on_mouse_out(this.id)" onmouseover="top.on_mouse_over(event, this.id)" stroke="black" stroke-width="0.1"/>
</svg>